<svg width="94" height="35" viewBox="0 0 94 35" fill="none" xmlns="http://www.w3.org/2000/svg">
<path d="M32.7608 16.8486C33.0855 17.1191 33.046 17.6291 32.6835 17.8465L16.4772 27.5629C16.393 27.6134 16.2934 27.5264 16.3321 27.4361L21.0429 16.457C21.2167 16.052 20.9196 15.6013 20.4789 15.6013H8.0369C7.06026 15.6013 6.12362 15.2133 5.43306 14.5227L0.0298494 9.11912C-0.0339171 9.05535 0.011248 8.94632 0.10143 8.94632H21.9427C22.8039 8.94632 23.6379 9.24821 24.2996 9.79949L32.7608 16.8486Z" fill="#CBFF00"/>
<path d="M17.8755 17.4672C18.1829 17.4672 18.3909 17.7806 18.2713 18.0638L14.669 26.5987C14.3812 27.2807 13.7129 27.7239 12.9727 27.7239H4.8655C4.55579 27.7239 4.34784 27.4062 4.47183 27.1224L8.20761 18.5712C8.5006 17.9006 9.16294 17.4672 9.89478 17.4672H17.8755Z" fill="white"/>
<path d="M46.9453 12.5C47.6476 12.5 48.2559 12.622 48.7703 12.8659C49.2946 13.0996 49.6952 13.435 49.9722 13.872C50.259 14.3089 50.4025 14.8069 50.4025 15.3659C50.4025 15.6098 50.3827 15.8333 50.3431 16.0366L50.3134 16.189C50.1057 17.2561 49.6309 18.0589 48.889 18.5976C48.157 19.1362 47.1678 19.4055 45.9215 19.4055H42.405L41.7373 22.5H38.6956L40.8619 12.5H46.9453ZM46.1589 16.814C46.8019 16.814 47.1728 16.5549 47.2717 16.0366L47.3014 15.8841C47.3113 15.8333 47.3162 15.7673 47.3162 15.686C47.3162 15.2795 47.0442 15.0762 46.5002 15.0762H43.3546L42.954 16.814H46.1589Z" fill="#CBFF00"/>
<path d="M59.1603 22.0427L59.0564 22.5H56.2372L55.9553 20.8232H51.7711L50.7473 22.5H47.6314L47.7204 22.0427L53.8335 12.5H57.1868L59.1603 22.0427ZM55.5399 18.3537L55.0354 15.4268L53.2697 18.3537H55.5399Z" fill="#CBFF00"/>
<path d="M66.2902 12.5C67.9026 12.5 69.1341 12.8455 69.9848 13.5366C70.8355 14.2276 71.2608 15.2134 71.2608 16.4939C71.2608 16.8496 71.2212 17.2612 71.1421 17.7287L71.1124 17.8354C70.9146 18.9431 70.5684 19.8374 70.0738 20.5183C69.5792 21.1992 68.9016 21.7022 68.041 22.0274C67.1805 22.3425 66.0973 22.5 64.7916 22.5H59.2868L61.4531 12.5H66.2902ZM65.1032 19.8171C66.033 19.8171 66.7304 19.6494 67.1953 19.314C67.6602 18.9787 67.9668 18.4197 68.1152 17.6372L68.1597 17.4543C68.1993 17.2612 68.2191 17.063 68.2191 16.8598C68.2191 15.7317 67.4525 15.1677 65.9193 15.1677H63.931L62.8924 19.8171H65.1032Z" fill="#CBFF00"/>
<path d="M82.169 12.5L81.62 15.0457H75.6108L75.3437 16.2348H81.0562L80.522 18.75H74.8095L74.5276 19.939H80.5369L80.0027 22.5H70.9518L73.1181 12.5H82.169Z" fill="#CBFF00"/>
<path d="M86.2888 12.5L84.6863 19.8171H90.6956L90.1317 22.5H81.0808L83.2471 12.5H86.2888Z" fill="#CBFF00"/>
</svg>
